<?xml version='1.0' encoding='iso-8859-1'?>
<svg version="1.1" xmlns="http://www.w3.org/2000/svg" viewBox="0 0 64 64" xmlns:xlink="http://www.w3.org/1999/xlink" enable-background="new 0 0 64 64">
  <g>
    <g>
      <path d="m45.57,12.67c0.032-0.014 0.196-0.106 0,0zm9.513,15.22c-0.138-0.027 0.293,0.094 0,0zm8.894,.996c-0.004-0.046-0.017-0.088-0.027-0.133-0.018-0.069-0.035-0.135-0.066-0.198-0.043-0.095-0.102-0.176-0.171-0.253-0.003-0.004-0.006-0.008-0.009-0.011-0.123-0.134-0.269-0.248-0.456-0.299l-8.074-2.219c-0.547-2.036-1.357-3.963-2.39-5.744l4.146-7.289c0.096-0.168 0.119-0.352 0.111-0.534 0-0.005-0.001-0.01-0.001-0.015-0.006-0.103-0.022-0.202-0.058-0.3-0.022-0.066-0.057-0.125-0.093-0.187-0.024-0.039-0.045-0.077-0.075-0.113-0.024-0.031-0.036-0.068-0.065-0.097l-4.243-4.243c-0.029-0.029-0.066-0.04-0.097-0.065-0.036-0.03-0.074-0.051-0.113-0.075-0.062-0.036-0.12-0.071-0.187-0.093-0.097-0.036-0.196-0.052-0.3-0.058-0.005,0-0.01-0.001-0.015-0.001-0.182-0.008-0.366,0.015-0.534,0.111l-7.299,4.152c-1.779-1.024-3.699-1.83-5.728-2.375l-2.224-8.094c-0.051-0.187-0.165-0.333-0.299-0.456-0.003-0.004-0.008-0.006-0.011-0.009-0.077-0.069-0.159-0.128-0.253-0.171-0.062-0.032-0.129-0.048-0.198-0.066-0.045-0.01-0.087-0.023-0.133-0.027-0.04-0.006-0.074-0.024-0.115-0.024h-6c-0.041,0-0.075,0.018-0.114,0.023-0.046,0.004-0.088,0.017-0.133,0.027-0.069,0.018-0.135,0.035-0.198,0.066-0.095,0.043-0.176,0.102-0.253,0.171-0.003,0.003-0.008,0.006-0.011,0.009-0.135,0.123-0.248,0.269-0.299,0.456l-2.224,8.094c-2.029,0.545-3.949,1.351-5.728,2.375l-7.301-4.151c-0.168-0.096-0.352-0.119-0.534-0.111-0.005,0-0.01,0.001-0.015,0.001-0.103,0.006-0.202,0.022-0.3,0.058-0.066,0.022-0.125,0.057-0.187,0.093-0.039,0.024-0.077,0.045-0.113,0.075-0.031,0.024-0.068,0.036-0.097,0.065l-4.243,4.243c-0.029,0.029-0.04,0.066-0.065,0.097-0.03,0.036-0.051,0.074-0.075,0.113-0.036,0.061-0.071,0.12-0.093,0.187-0.037,0.097-0.052,0.196-0.058,0.3 0,0.005-0.001,0.01-0.001,0.015-0.008,0.182 0.015,0.366 0.111,0.534l4.146,7.289c-1.033,1.781-1.843,3.708-2.39,5.744l-8.074,2.219c-0.187,0.051-0.333,0.165-0.456,0.299-0.004,0.004-0.006,0.008-0.009,0.011-0.069,0.077-0.128,0.158-0.171,0.253-0.031,0.062-0.048,0.129-0.066,0.198-0.01,0.045-0.023,0.087-0.027,0.133-0.004,0.039-0.022,0.073-0.022,0.114v6c0,0.041 0.018,0.075 0.023,0.114 0.004,0.046 0.017,0.088 0.027,0.133 0.018,0.069 0.035,0.135 0.066,0.198 0.043,0.095 0.102,0.176 0.171,0.253 0.003,0.004 0.006,0.008 0.009,0.011 0.123,0.134 0.269,0.248 0.456,0.299l8.074,2.219c0.547,2.036 1.357,3.963 2.389,5.746l-4.145,7.288c-0.096,0.168-0.119,0.352-0.111,0.534 0,0.005 0.001,0.01 0.001,0.015 0.006,0.103 0.022,0.202 0.058,0.3 0.022,0.066 0.057,0.125 0.093,0.187 0.024,0.039 0.045,0.077 0.075,0.113 0.024,0.031 0.036,0.069 0.065,0.097l4.243,4.243c0.029,0.029 0.066,0.04 0.097,0.065 0.036,0.03 0.074,0.051 0.113,0.075 0.061,0.036 0.12,0.071 0.187,0.093 0.097,0.037 0.196,0.052 0.3,0.058 0.005,0 0.01,0.001 0.015,0.001 0.182,0.008 0.366-0.015 0.534-0.111l7.302-4.154c1.777,1.026 3.697,1.832 5.726,2.377l2.224,8.094c0.051,0.187 0.165,0.333 0.299,0.456 0.003,0.004 0.008,0.006 0.011,0.009 0.077,0.069 0.159,0.128 0.253,0.171 0.062,0.032 0.129,0.048 0.198,0.066 0.045,0.01 0.087,0.023 0.133,0.027 0.039,0.005 0.073,0.023 0.114,0.023h6c0.041,0 0.075-0.018 0.114-0.023 0.046-0.004 0.088-0.017 0.133-0.027 0.069-0.018 0.135-0.035 0.198-0.066 0.095-0.043 0.176-0.102 0.253-0.171 0.004-0.003 0.008-0.006 0.011-0.009 0.134-0.123 0.248-0.269 0.299-0.456l2.224-8.094c2.029-0.545 3.949-1.351 5.726-2.377l7.302,4.154c0.168,0.096 0.352,0.119 0.534,0.111 0.005,0 0.01-0.001 0.015-0.001 0.103-0.006 0.202-0.022 0.3-0.058 0.066-0.022 0.125-0.057 0.187-0.093 0.039-0.024 0.077-0.045 0.113-0.075 0.031-0.024 0.068-0.036 0.097-0.065l4.243-4.243c0.029-0.029 0.04-0.066 0.065-0.097 0.03-0.036 0.051-0.074 0.075-0.113 0.036-0.062 0.071-0.12 0.093-0.187 0.036-0.097 0.052-0.196 0.058-0.3 0-0.005 0.001-0.01 0.001-0.015 0.008-0.182-0.015-0.366-0.111-0.534l-4.145-7.287c1.032-1.783 1.842-3.71 2.389-5.746l8.074-2.219c0.186-0.051 0.333-0.165 0.456-0.299 0.003-0.004 0.006-0.008 0.009-0.011 0.069-0.077 0.128-0.159 0.171-0.253 0.031-0.062 0.048-0.129 0.066-0.198 0.01-0.045 0.023-0.087 0.027-0.133 0.005-0.04 0.023-0.074 0.023-0.115v-6c0-0.041-0.018-0.075-0.023-0.114zm-1.977,5.342l-6.331,1.74c-1.855,0.444 1.531-0.402-2.103,0.495-0.054,0.013-0.021-0.048-0.032,0.006-0.533,2.676-1.539,5.098-2.939,7.281-0.033,0.051-0.131,0.12-0.099,0.184 0.838,1.663 0.563,1.039 1.032,1.971l3.261,5.732-3.151,3.151-5.742-3.266c-1.814-1.109-0.019-0.019-1.84-1.095-0.052-0.031-0.164,0.066-0.215,0.099-2.208,1.415-4.683,2.447-7.335,3-0.056,0.012-0.03-0.021-0.043,0.034-0.515,2.192-0.035,0.144-0.487,2.083l-1.748,6.357h-4.456l-1.747-6.356c-0.354-1.766-0.215-0.953-0.461-2.091-0.012-0.056-0.206-0.055-0.262-0.067-2.565-0.559-4.962-1.566-7.107-2.935-0.055-0.035-0.105-0.124-0.154-0.097-1.451,0.789-0.314,0.17-1.937,1.07l-5.742,3.266-3.151-3.151 3.261-5.732c0.802-1.416 0.223-0.365 1.089-1.936 0.029-0.053-0.066-0.102-0.099-0.153-1.42-2.22-2.422-4.584-2.971-7.253-0.013-0.062 0.055-0.014-0.006-0.03-1.517-0.403-0.089-0.048-2.154-0.566l-6.331-1.741v-4.456l6.331-1.74c2.161-0.528 1.113-0.291 2.134-0.495 0.057-0.011-0.008,0.04 0.004-0.018 0.538-2.591 1.534-5.012 2.897-7.18 0.031-0.049 0.256-0.384 0.249-0.396-0.655-1.06-0.141-0.209-1.141-1.845l-3.262-5.735 3.151-3.151 5.74,3.265c1.347,0.739-0.234-0.107 1.949,1.052 0.048,0.026 0.123-0.059 0.169-0.089 2.172-1.39 4.571-2.391 7.205-2.938 0.054-0.011 0.023,0.052 0.038-0.002 0.719-2.656 0.263-0.953 0.563-2.143l1.745-6.357h4.456l1.747,6.356c0.419,1.428 0.437,1.436 0.583,2.103 0.011,0.05 0.136,0.055 0.266,0.084 2.5,0.56 4.838,1.547 6.936,2.879 0.051,0.033 0.163,0.159 0.216,0.13 1.004-0.557 1.429-0.79 1.595-0.881-0.022,0.01 0.024-0.019 0.328-0.194l5.74-3.265 3.151,3.151-3.262,5.735c-0.548,0.975 0.069-0.075-1.077,1.907-0.026,0.045 0.15,0.275 0.177,0.319 1.329,2.112 2.31,4.464 2.858,6.979 0.023,0.104-0.036,0.095 0.066,0.125 0.944,0.28 1.361,0.407 1.532,0.463 0.059,0.011 0.216,0.048 0.586,0.142l6.33,1.739v4.456zm-30-16.228c-7.732,0-14,6.268-14,14s6.268,14 14,14 14-6.268 14-14-6.268-14-14-14zm0,26c-6.627,0-12-5.373-12-12 0-6.627 5.373-12 12-12 6.627,0 12,5.373 12,12 0,6.627-5.373,12-12,12zm0-20c-4.418,0-8,3.582-8,8s3.582,8 8,8 8-3.582 8-8-3.582-8-8-8zm0,14c-3.314,0-6-2.686-6-6s2.686-6 6-6 6,2.686 6,6-2.686,6-6,6z"/>
    </g>
  </g>
</svg>
