<?xml version="1.0" ?><!DOCTYPE svg  PUBLIC '-//W3C//DTD SVG 1.0//EN'  'http://www.w3.org/TR/2001/REC-SVG-20010904/DTD/svg10.dtd'><svg height="54px" style="shape-rendering:geometricPrecision; text-rendering:geometricPrecision; image-rendering:optimizeQuality; fill-rule:evenodd; clip-rule:evenodd" version="1.0" viewBox="0 0 16787 14136" width="64px" xml:space="preserve" xmlns="http://www.w3.org/2000/svg" xmlns:xlink="http://www.w3.org/1999/xlink"><defs><style type="text/css">
   <![CDATA[
    .fil0 {fill:#27afb7;fill-rule:nonzero}
   ]]>
  </style></defs><g id="Layer_x0020_1"><path class="fil0" d="M1817 1021l806 0 0 -758c0,-145 118,-262 262,-262 145,0 262,118 262,262l0 758 1311 0 0 -758c0,-145 118,-262 262,-262 145,0 262,118 262,262l0 758 1311 0 0 -758c0,-145 118,-262 262,-262 145,0 262,118 262,262l0 758 1311 0 0 -758c0,-145 118,-262 262,-262 145,0 262,118 262,262l0 758 1311 0 0 -758c0,-145 118,-262 262,-262 145,0 262,118 262,262l0 758 1311 0 0 -758c0,-145 118,-262 262,-262 145,0 262,118 262,262l0 758 1311 0 0 -758c0,-145 118,-262 262,-262 145,0 262,118 262,262l0 758 807 0c499,0 953,205 1282,533l1 1c329,329 533,783 533,1282l0 274 0 7 0 7 0 9193c0,500 -205,955 -533,1284 -329,329 -784,533 -1284,533l-13153 0c-498,0 -953,-204 -1282,-533l-1 -1c-329,-330 -533,-784 -533,-1282l0 -9193 0 -7 0 -7 0 -274c0,-500 204,-955 533,-1284 329,-329 784,-533 1284,-533zm10773 9443l7 0 1829 0c145,0 262,118 262,262l0 7 0 1829c0,145 -118,262 -262,262l-7 0 -1829 0c-145,0 -262,-118 -262,-262l0 -7 0 -1829c0,-145 118,-262 262,-262zm1574 525l-1311 0 0 1311 1311 0 0 -1311zm-4984 -525l7 0 1829 0c145,0 262,118 262,262l0 7 0 1829c0,145 -118,262 -262,262l-7 0 -1829 0c-145,0 -262,-118 -262,-262l0 -7 0 -1829c0,-145 118,-262 262,-262zm1574 525l-1311 0 0 1311 1311 0 0 -1311zm-4984 -525l7 0 1829 0c145,0 262,118 262,262l0 7 0 1829c0,145 -118,262 -262,262l-7 0 -1829 0c-145,0 -262,-118 -262,-262l0 -7 0 -1829c0,-145 118,-262 262,-262zm1574 525l-1311 0 0 1311 1311 0 0 -1311zm-4984 -525l7 0 1829 0c145,0 262,118 262,262l0 7 0 1829c0,145 -118,262 -262,262l-7 0 -1829 0c-145,0 -262,-118 -262,-262l0 -7 0 -1829c0,-145 118,-262 262,-262zm1574 525l-1311 0 0 1311 1311 0 0 -1311zm8656 -3672l7 0 1829 0c145,0 262,118 262,262l0 7 0 1829c0,145 -118,262 -262,262l-7 0 -1829 0c-145,0 -262,-118 -262,-262l0 -7 0 -1829c0,-145 118,-262 262,-262zm1574 525l-1311 0 0 1311 1311 0 0 -1311zm-4984 -525l7 0 1829 0c145,0 262,118 262,262l0 7 0 1829c0,145 -118,262 -262,262l-7 0 -1829 0c-145,0 -262,-118 -262,-262l0 -7 0 -1829c0,-145 118,-262 262,-262zm1574 525l-1311 0 0 1311 1311 0 0 -1311zm-4984 -525l7 0 1829 0c145,0 262,118 262,262l0 7 0 1829c0,145 -118,262 -262,262l-7 0 -1829 0c-145,0 -262,-118 -262,-262l0 -7 0 -1829c0,-145 118,-262 262,-262zm1574 525l-1311 0 0 1311 1311 0 0 -1311zm-4984 -525l7 0 1829 0c145,0 262,118 262,262l0 7 0 1829c0,145 -118,262 -262,262l-7 0 -1829 0c-145,0 -262,-118 -262,-262l0 -7 0 -1829c0,-145 118,-262 262,-262zm1574 525l-1311 0 0 1311 1311 0 0 -1311zm8656 -3672l7 0 1829 0c145,0 262,118 262,262l0 7 0 1829c0,145 -118,262 -262,262l-7 0 -1829 0c-145,0 -262,-118 -262,-262l0 -7 0 -1829c0,-145 118,-262 262,-262zm1574 525l-1311 0 0 1311 1311 0 0 -1311zm-4984 -525l7 0 1829 0c145,0 262,118 262,262l0 7 0 1829c0,145 -118,262 -262,262l-7 0 -1829 0c-145,0 -262,-118 -262,-262l0 -7 0 -1829c0,-145 118,-262 262,-262zm1574 525l-1311 0 0 1311 1311 0 0 -1311zm-4984 -525l7 0 1829 0c145,0 262,118 262,262l0 7 0 1829c0,145 -118,262 -262,262l-7 0 -1829 0c-145,0 -262,-118 -262,-262l0 -7 0 -1829c0,-145 118,-262 262,-262zm1574 525l-1311 0 0 1311 1311 0 0 -1311zm-4984 -525l7 0 1829 0c145,0 262,118 262,262l0 7 0 1829c0,145 -118,262 -262,262l-7 0 -1829 0c-145,0 -262,-118 -262,-262l0 -7 0 -1829c0,-145 118,-262 262,-262zm1574 525l-1311 0 0 1311 1311 0 0 -1311zm10229 -3148l0 562c0,145 -118,262 -262,262 -145,0 -262,-118 -262,-262l0 -562 -1311 0 0 562c0,145 -118,262 -262,262 -145,0 -262,-118 -262,-262l0 -562 -1311 0 0 562c0,145 -118,262 -262,262 -145,0 -262,-118 -262,-262l0 -562 -1311 0 0 562c0,145 -118,262 -262,262 -145,0 -262,-118 -262,-262l0 -562 -1311 0 0 562c0,145 -118,262 -262,262 -145,0 -262,-118 -262,-262l0 -562 -1311 0 0 562c0,145 -118,262 -262,262 -145,0 -262,-118 -262,-262l0 -562 -1311 0 0 562c0,145 -118,262 -262,262 -145,0 -262,-118 -262,-262l0 -562 -806 0c-355,0 -678,146 -912,380 -234,234 -380,557 -380,912l0 19 15738 0 0 -19c0,-355 -146,-679 -379,-913 -234,-234 -558,-379 -913,-379l-807 0zm2099 1836l-15738 0 0 8938c0,356 145,679 379,912l1 1c233,234 557,379 912,379l13153 0c355,0 678,-146 912,-380 234,-234 380,-557 380,-912l0 -8938z"/></g></svg>