<?xml version='1.0' encoding='iso-8859-1'?>
<svg version="1.1" xmlns="http://www.w3.org/2000/svg" viewBox="0 0 64 64" xmlns:xlink="http://www.w3.org/1999/xlink" enable-background="new 0 0 64 64">
  <g>
    <g>
      <path d="m62,4h-8v-1c0-1.657-1.343-3-3-3-1.657,0-3,1.343-3,3v1h-32v-1c0-1.657-1.343-3-3-3s-3,1.343-3,3v1h-8c-1.105,0-2,0.895-2,2v56c0,1.105 0.895,2 2,2h60c1.105,0 2-0.895 2-2v-56c0-1.105-0.895-2-2-2zm-12-1c0-0.552 0.448-1 1-1 0.552,0 1,0.448 1,1v4c0,0.552-0.448,1-1,1-0.552,0-1-0.448-1-1v-4zm-38,0c0-0.552 0.448-1 1-1 0.552,0 1,0.448 1,1v4c0,0.552-0.448,1-1,1-0.552,0-1-0.448-1-1v-4zm50,59h-60v-46h60v46zm0-48h-60v-8h8v1c0,1.657 1.343,3 3,3s3-1.343 3-3v-1h32v1c0,1.657 1.343,3 3,3 1.657,0 3-1.343 3-3v-1h8v8zm-25,29c2.393,0 4.534-1.056 6-2.721v2.721c0,3.314-2.686,6-6,6-2.082,0-3.914-1.062-4.99-2.673 0,0-0.602-0.668-1.433-0.086-0.663,0.464-0.232,1.197-0.232,1.197 1.434,2.147 3.879,3.562 6.655,3.562 4.418,0 8-3.582 8-8v-8c0-1.657-0.504-3.196-1.366-4.473-0.288-0.426-0.615-0.822-0.977-1.184-0.181-0.181-0.371-0.353-0.568-0.516-1.185-0.978-2.657-1.622-4.271-1.785-0.269-0.028-0.542-0.042-0.818-0.042-4.418,0-8,3.582-8,8s3.582,8 8,8zm0-14c3.314,0 6,2.686 6,6s-2.686,6-6,6c-3.314,0-6-2.686-6-6s2.686-6 6-6zm-17,0h3v21c0,0.552 0.448,1 1,1 0.552,0 1-0.448 1-1v-22c0-0.552-0.448-1-1-1h-4c-0.552,0-1,0.448-1,1s0.448,1 1,1z"/>
    </g>
  </g>
</svg>
