<?xml version='1.0' encoding='iso-8859-1'?>
<svg version="1.1" xmlns="http://www.w3.org/2000/svg" viewBox="0 0 64 64" xmlns:xlink="http://www.w3.org/1999/xlink" enable-background="new 0 0 64 64">
  <g>
    <g>
      <path d="m37,36h-10c-0.552,0-1,0.448-1,1 0,0.552 0.448,1 1,1h10c0.552,0 1-0.448 1-1 0-0.552-0.448-1-1-1zm25-26h-18v-8c0-1.105-0.895-2-2-2h-20c-1.105,0-2,0.895-2,2v8h-18c-1.105,0-2,0.895-2,2v50c0,1.105 0.895,2 2,2h60c1.105,0 2-0.895 2-2v-50c0-1.105-0.895-2-2-2zm-40-8h20v8h-20v-8zm40,60h-60v-24h18v5c0,1.105 0.895,2 2,2h20c1.105,0 2-0.895 2-2v-5h18v24zm-40-19v-12h20v12h-20zm40-7h-18v-5c0-1.105-0.895-2-2-2h-20c-1.105,0-2,0.895-2,2v5h-18v-24h60v24z"/>
    </g>
  </g>
</svg>
